<svg height="512" viewBox="0 0 64 64" width="512" xmlns="http://www.w3.org/2000/svg" xmlns:xlink="http://www.w3.org/1999/xlink"><linearGradient id="New_Gradient_Swatch_3" gradientUnits="userSpaceOnUse" x1="26.5" x2="26.5" y1="63.876" y2="3.053"><stop offset="0" stop-color="#006df0"/><stop offset="1" stop-color="#00e7f0"/></linearGradient><linearGradient id="New_Gradient_Swatch_3-2" x1="37.5" x2="37.5" xlink:href="#New_Gradient_Swatch_3" y1="63.876" y2="3.053"/><linearGradient id="New_Gradient_Swatch_3-3" x1="32" x2="32" xlink:href="#New_Gradient_Swatch_3" y1="63.876" y2="3.053"/><linearGradient id="New_Gradient_Swatch_3-5" x1="34" x2="34" xlink:href="#New_Gradient_Swatch_3" y1="63.876" y2="3.053"/><linearGradient id="New_Gradient_Swatch_3-7" x1="55" x2="55" xlink:href="#New_Gradient_Swatch_3" y1="63.876" y2="3.053"/><linearGradient id="New_Gradient_Swatch_3-8" x1="57" x2="57" xlink:href="#New_Gradient_Swatch_3" y1="63.876" y2="3.053"/><linearGradient id="New_Gradient_Swatch_3-9" x1="53" x2="53" xlink:href="#New_Gradient_Swatch_3" y1="63.876" y2="3.053"/><linearGradient id="New_Gradient_Swatch_3-11" x1="46" x2="46" xlink:href="#New_Gradient_Swatch_3" y1="63.876" y2="3.053"/><linearGradient id="New_Gradient_Swatch_3-12" x1="48" x2="48" xlink:href="#New_Gradient_Swatch_3" y1="63.876" y2="3.053"/><linearGradient id="New_Gradient_Swatch_3-13" x1="44" x2="44" xlink:href="#New_Gradient_Swatch_3" y1="63.876" y2="3.053"/><linearGradient id="New_Gradient_Swatch_3-15" x1="9" x2="9" xlink:href="#New_Gradient_Swatch_3" y1="63.876" y2="3.053"/><linearGradient id="New_Gradient_Swatch_3-16" x1="7" x2="7" xlink:href="#New_Gradient_Swatch_3" y1="63.876" y2="3.053"/><linearGradient id="New_Gradient_Swatch_3-17" x1="11" x2="11" xlink:href="#New_Gradient_Swatch_3" y1="63.876" y2="3.053"/><linearGradient id="New_Gradient_Swatch_3-19" x1="18" x2="18" xlink:href="#New_Gradient_Swatch_3" y1="63.876" y2="3.053"/><linearGradient id="New_Gradient_Swatch_3-20" x1="16" x2="16" xlink:href="#New_Gradient_Swatch_3" y1="63.876" y2="3.053"/><linearGradient id="New_Gradient_Swatch_3-21" x1="20" x2="20" xlink:href="#New_Gradient_Swatch_3" y1="63.876" y2="3.053"/><path d="m28 17a1 1 0 0 1 -.707-.293l-3-3a1 1 0 0 1 0-1.414l3-3a1 1 0 0 1 1.414 1.414l-2.293 2.293 2.293 2.293a1 1 0 0 1 -.707 1.707z" fill="url(#New_Gradient_Swatch_3)"/><path d="m36 17a1 1 0 0 1 -.707-1.707l2.293-2.293-2.293-2.293a1 1 0 0 1 1.414-1.414l3 3a1 1 0 0 1 0 1.414l-3 3a1 1 0 0 1 -.707.293z" fill="url(#New_Gradient_Swatch_3-2)"/><path d="m31 18a.976.976 0 0 1 -.244-.03 1 1 0 0 1 -.727-1.213l2-8a1 1 0 0 1 1.94.486l-2 8a1 1 0 0 1 -.969.757z" fill="url(#New_Gradient_Swatch_3-3)"/><path d="m32 26.24a.993.993 0 0 1 -.707-.293l-2.393-2.394a11 11 0 1 1 6.2 0l-2.395 2.394a.993.993 0 0 1 -.705.293zm0-22.24a9 9 0 0 0 -2.324 17.693 1 1 0 0 1 .451.26l1.873 1.873 1.873-1.873a1 1 0 0 1 .451-.26 9 9 0 0 0 -2.324-17.693z" fill="url(#New_Gradient_Swatch_3-3)"/><path d="m61.832 56.445-3.266-4.9a2.981 2.981 0 0 0 -.566-5.361v-7.184a1 1 0 0 0 -.628-.929l-25-10a1.017 1.017 0 0 0 -.744 0l-25 10a1 1 0 0 0 0 1.858l9.372 3.748v15.323a3 3 0 0 0 3 3h26a3 3 0 0 0 3-3v-15.323l8-3.2v5.707a2.981 2.981 0 0 0 -.566 5.363l-3.266 4.9a1 1 0 0 0 .832 1.553h8a1 1 0 0 0 .832-1.555zm-15.832 2.555a1 1 0 0 1 -1 1h-26a1 1 0 0 1 -1-1v-14.523l13.628 5.452a1.01 1.01 0 0 0 .744 0l13.628-5.452zm.611-16.921-14.611 5.844-14.611-5.844-7.697-3.079 22.308-8.923 22.308 8.923zm10.389 5.921a1 1 0 1 1 -1 1 1 1 0 0 1 1-1zm-2.131 8 2.131-3.2 2.131 3.2z" fill="url(#New_Gradient_Swatch_3-5)"/><path d="m20 57a1 1 0 0 0 1 1h22a1 1 0 0 0 0-2h-22a1 1 0 0 0 -1 1z" fill="url(#New_Gradient_Swatch_3-3)"/><path d="m54 19h2v2h-2z" fill="url(#New_Gradient_Swatch_3-7)"/><path d="m56 17h2v2h-2z" fill="url(#New_Gradient_Swatch_3-8)"/><path d="m52 17h2v2h-2z" fill="url(#New_Gradient_Swatch_3-9)"/><path d="m54 15h2v2h-2z" fill="url(#New_Gradient_Swatch_3-7)"/><path d="m45 27h2v2h-2z" fill="url(#New_Gradient_Swatch_3-11)"/><path d="m47 25h2v2h-2z" fill="url(#New_Gradient_Swatch_3-12)"/><path d="m43 25h2v2h-2z" fill="url(#New_Gradient_Swatch_3-13)"/><path d="m45 23h2v2h-2z" fill="url(#New_Gradient_Swatch_3-11)"/><path d="m8 19h2v2h-2z" fill="url(#New_Gradient_Swatch_3-15)"/><path d="m6 17h2v2h-2z" fill="url(#New_Gradient_Swatch_3-16)"/><path d="m10 17h2v2h-2z" fill="url(#New_Gradient_Swatch_3-17)"/><path d="m8 15h2v2h-2z" fill="url(#New_Gradient_Swatch_3-15)"/><path d="m17 27h2v2h-2z" fill="url(#New_Gradient_Swatch_3-19)"/><path d="m15 25h2v2h-2z" fill="url(#New_Gradient_Swatch_3-20)"/><path d="m19 25h2v2h-2z" fill="url(#New_Gradient_Swatch_3-21)"/><path d="m17 23h2v2h-2z" fill="url(#New_Gradient_Swatch_3-19)"/></svg>